#!OML:ASF F:\twosubjects\two\Thursday\Session 1\Rory.ASF
:FULLY-SPECIFIED
:DEGREES
805
root 11.5357 18.9309 10.0943 -146.053 -82.7983 149.286
lowerback -6.21369 -1.21657 -4.259
upperback 0.31734 -1.26338 -2.17357
thorax 3.85928 -0.708375 0.0197967
lowerneck -2.33451 -3.98721 -3.98316
upperneck 33.7545 -11.4284 11.0757
head 12.4589 -5.30045 3.48402
rclavicle -7.19352e-015 -1.03368e-014
rhumerus -40.3214 27.4515 -101.27
rradius 111.072
rwrist 15.8702
rhand -33.697 32.162
rfingers 7.12502
rthumb -6.88707 2.294
lclavicle -7.19352e-015 -1.03368e-014
lhumerus -26.6926 -39.9991 92.1967
lradius 122.479
lwrist -18.68
lhand -14.1393 44.5154
lfingers 7.12502
lthumb 11.9948 74.1517
rfemur -1.59536 8.91 11.6534
rtibia 7.8924
rfoot -6.24941 -8.60782
rtoes -15.2954
lfemur 0.0712676 -7.10536 -19.5205
ltibia 6.41346
lfoot -9.47359 12.5163
ltoes 16.1032
806
root 11.5338 18.9309 10.095 -145.531 -82.6523 148.862
lowerback -6.31494 -1.30063 -4.4649
upperback 0.296281 -1.35688 -2.10605
thorax 3.90423 -0.759835 0.193334
lowerneck -2.33939 -4.06814 -4.16802
upperneck 33.5301 -11.4293 10.9942
head 12.3668 -5.32793 3.48049
rclavicle 1.51201e-014 1.55052e-014
rhumerus -40.2135 27.6105 -101.422
rradius 110.662
rwrist 16.1206
rhand -33.8214 31.7864
rfingers 7.12502
rthumb -7.00712 1.92241
lclavicle 1.51201e-014 1.55052e-014
lhumerus -27.1377 -39.5351 92.5899
lradius 122.363
lwrist -19.236
lhand -14.5036 44.0974
lfingers 7.12502
lthumb 11.6435 73.7539
rfemur -1.78786 8.9599 11.4903
rtibia 8.01932
rfoot -6.26651 -8.57937
rtoes -15.6578
lfemur -0.0509817 -7.01403 -19.6561
ltibia 6.45568
lfoot -9.61264 12.6257
ltoes 15.1551
807
root 11.5326 18.9312 10.1004 -145.063 -82.5214 148.49
lowerback -6.34156 -1.348 -4.614
upperback 0.221602 -1.41263 -2.04529
thorax 3.84898 -0.789329 0.334622
lowerneck -2.20436 -4.07569 -4.50767
upperneck 33.3009 -11.3759 11.1076
head 12.2614 -5.33921 3.59174
rclavicle -3.77691e-014 7.15625e-015
rhumerus -40.4379 27.5892 -101.503
rradius 110.385
rwrist 16.3593
rhand -33.8128 31.7801
rfingers 7.12502
rthumb -6.99887 1.91583
lclavicle -3.77691e-014 7.15625e-015
lhumerus -27.681 -39.1435 93.0671
lradius 122.239
lwrist -20.1693
lhand -14.3787 44.3053
lfingers 7.12502
lthumb 11.7639 73.9549
rfemur -1.94562 8.9984 11.3127
rtibia 8.04813
rfoot -6.14582 -8.39887
rtoes -15.1047
lfemur -0.235631 -6.92022 -19.7846
ltibia 6.61464
lfoot -9.67905 12.5726
ltoes 15.016
808
root 11.5324 18.9325 10.1008 -146.353 -82.5129 149.873
lowerback -6.31226 -1.34089 -4.45921
upperback 0.124922 -1.42182 -1.9819
thorax 3.72993 -0.788056 0.315613
lowerneck -1.94683 -4.14205 -4.67254
upperneck 32.9821 -11.3658 11.0717
head 12.0782 -5.36925 3.6106
rclavicle 1.7872e-014 -2.90226e-014
rhumerus -40.8337 28.331 -101.442
rradius 110.25
rwrist 16.1669
rhand -33.9578 31.4858
rfingers 7.12502
rthumb -7.13879 1.62621
lclavicle 1.7872e-014 -2.90226e-014
lhumerus -28.261 -38.9652 93.3973
lradius 122.067
lwrist -21.0407
lhand -14.0941 44.6778
lfingers 7.12502
lthumb 12.0384 74.3115
rfemur -2.09795 9.07081 11.4619
rtibia 8.13141
rfoot -6.13498 -8.26314
rtoes -14.1624
lfemur -0.321289 -6.82321 -19.6094
ltibia 6.64364
lfoot -9.56234 12.5097
ltoes 14.3703
809
root 11.5306 18.9319 10.095 -148.036 -82.5017 151.559
lowerback -6.23391 -1.33722 -4.30342
upperback 0.0813943 -1.43559 -1.91965
thorax 3.63875 -0.790038 0.29458
lowerneck -1.69458 -4.2782 -4.67476
upperneck 32.629 -11.4088 10.8474
head 11.8673 -5.42071 3.52148
rclavicle -1.39584e-014 -3.37934e-014
rhumerus -41.4254 30.6072 -101.154
rradius 110.309
rwrist 15.2867
rhand -37.3107 32.3927
rfingers 7.12502
rthumb -10.3744 2.66863
lclavicle -1.39584e-014 -3.37934e-014
lhumerus -28.8418 -38.8046 93.6339
lradius 121.909
lwrist -21.5346
lhand -14.0821 44.6238
lfingers 7.12502
lthumb 12.0499 74.2569
rfemur -2.1538 9.17839 11.6958
rtibia 8.24701
rfoot -6.2479 -8.28129
rtoes -13.9009
lfemur -0.24085 -6.6952 -19.3922
ltibia 6.55846
lfoot -9.58282 12.4709
ltoes 13.6667
810
root 11.5285 18.9305 10.0949 -148.237 -82.3691 151.658
lowerback -6.12321 -1.37981 -4.44997
upperback 0.123628 -1.48812 -1.83102
thorax 3.62867 -0.819095 0.464962
lowerneck -1.69795 -4.41479 -4.99163
upperneck 32.4617 -11.4941 10.762
head 11.8193 -5.50028 3.53167
rclavicle 3.37064e-014 2.78299e-014
rhumerus -43.6789 38.3195 -99.3125
rradius 112.342
rwrist 11.4412
rhand -44.4732 34.8928
rfingers 7.12502
rthumb -17.2767 5.64077
lclavicle 3.37064e-014 2.78299e-014
lhumerus -29.1565 -38.4822 93.9456
lradius 121.812
lwrist -21.8696
lhand -14.2433 44.9552
lfingers 7.12502
lthumb 11.8945 74.5973
rfemur -2.05129 9.28765 11.6491
rtibia 8.21408
rfoot -6.18248 -8.37355
rtoes -14.841
lfemur -0.131379 -6.57704 -19.487
ltibia 6.62916
lfoot -9.76648 12.4528
ltoes 14.6007
811
root 11.5194 18.9279 10.0696 -148.796 -81.999 152.073
lowerback -6.16551 -1.36853 -5.05301
upperback 0.19737 -1.42755 -1.69172
thorax 3.74587 -0.803984 0.948747
lowerneck -1.60205 -4.63237 -5.43614
upperneck 32.2136 -11.6924 10.7316
head 11.7432 -5.64548 3.57374
rclavicle -1.56481e-014 7.95139e-016
rhumerus -44.0457 39.5699 -99.0604
rradius 112.435
rwrist 10.9238
rhand -44.8971 34.9904
rfingers 7.12502
rthumb -17.6846 5.77461
lclavicle -1.56481e-014 7.95139e-016
lhumerus -29.3438 -38.1751 94.2519
lradius 121.743
lwrist -22.0339
lhand -14.2178 45.7596
lfingers 7.12502
lthumb 11.9191 75.4003
rfemur -1.88516 9.63214 11.6352
rtibia 8.22096
rfoot -6.27036 -8.38363
rtoes -15.0722
lfemur 0.160353 -6.23449 -19.6025
ltibia 6.6156
lfoot -9.838 12.4793
ltoes 16.0044
812
root 11.5205 18.9259 10.0955 -148.208 -82.273 151.434
lowerback -6.02849 -1.44996 -4.66998
upperback 0.202633 -1.56969 -1.75827
thorax 3.66922 -0.865269 0.656071
lowerneck -1.3541 -4.97456 -5.6138
upperneck 31.7726 -12.0206 10.5501
head 11.5479 -5.83907 3.49927
rclavicle -2.18353e-014 -5.08889e-014
rhumerus -44.3219 40.0362 -99.0153
rradius 112.452
rwrist 10.714
rhand -40.5279 28.847
rfingers 7.12502
rthumb -13.4767 -0.696932
lclavicle -2.18353e-014 -5.08889e-014
lhumerus -29.6389 -38.0482 94.5254
lradius 121.604
lwrist -22.2451
lhand -13.984 46.1586
lfingers 7.12502
lthumb 12.1445 75.7861
rfemur -1.85595 9.33267 11.5876
rtibia 8.2534
rfoot -6.37266 -8.35441
rtoes -15.2586
lfemur 0.1831 -6.51447 -19.644
ltibia 6.57432
lfoot -9.76454 12.4965
ltoes 16.6944
813
root 11.517 18.9269 10.0775 -150.425 -82.0018 153.734
lowerback -6.15099 -1.36835 -4.78156
upperback 0.247592 -1.44495 -1.66007
thorax 3.78455 -0.808187 0.827904
lowerneck -1.38894 -5.27815 -5.79822
upperneck 31.4953 -12.3025 10.3511
head 11.4712 -5.99765 3.41799
rclavicle -8.92046e-015 -3.97569e-016
rhumerus -44.346 40.2031 -98.9543
rradius 112.27
rwrist 10.6939
rhand -36.8457 24.8125
rfingers 7.12502
rthumb -9.92577 -4.93354
lclavicle -8.92046e-015 -3.97569e-016
lhumerus -29.8928 -37.794 94.7888
lradius 121.391
lwrist -22.8774
lhand -13.827 45.618
lfingers 7.12502
lthumb 12.296 75.2365
rfemur -1.91443 9.69279 11.7725
rtibia 8.11115
rfoot -6.18413 -8.29587
rtoes -15.239
lfemur 0.080066 -6.11915 -19.4249
ltibia 6.77434
lfoot -9.96754 12.3658
ltoes 16.7895
814
root 11.5129 18.9327 10.0557 -152.372 -81.693 155.754
lowerback -6.19513 -1.29215 -4.95676
upperback 0.256877 -1.32988 -1.5507
thorax 3.82015 -0.755712 1.04888
lowerneck -1.41766 -5.62856 -6.13528
upperneck 31.204 -12.6817 10.2839
head 11.4194 -6.20616 3.40068
rclavicle -1.45361e-014 -1.23246e-014
rhumerus -44.4992 40.2419 -99.2249
rradius 111.914
rwrist 10.9394
rhand -36.91 24.3717
rfingers 7.12502
rthumb -9.98779 -5.37129
lclavicle -1.45361e-014 -1.23246e-014
lhumerus -30.2048 -37.5426 94.9843
lradius 121.29
lwrist -23.374
lhand -13.7721 45.1205
lfingers 7.12502
lthumb 12.3489 74.7358
rfemur -1.85073 10.0713 11.9749
rtibia 7.81333
rfoot -5.99701 -8.23525
rtoes -14.8394
lfemur -0.115028 -5.7078 -19.2373
ltibia 7.21257
lfoot -10.2317 12.2715
ltoes 15.8744
